<svg width="281" height="29" viewBox="0 0 281 29" fill="none" xmlns="http://www.w3.org/2000/svg">
<g filter="url(#filter0_d_164_647)">
<mask id="path-1-outside-1_164_647" maskUnits="userSpaceOnUse" x="1" y="-1" width="281" height="29" fill="black">
<rect fill="white" x="1" y="-1" width="281" height="29"/>
<path d="M12.6539 26.384C6.09388 26.384 2.63788 21.936 2.63788 13.552C2.63788 5.136 6.31788 0.4 12.7819 0.4C19.1819 0.4 22.8299 5.072 22.8299 13.392C22.8299 21.776 19.2139 26.384 12.6539 26.384ZM12.7179 23.216C15.6619 23.216 17.3899 19.6 17.3899 13.36C17.3899 7.12 15.6939 3.568 12.7499 3.568C9.86987 3.568 8.07788 7.216 8.07788 13.264C8.07788 19.6 9.80588 23.216 12.7179 23.216ZM43.6516 23.504C43.9716 23.6 44.2596 23.728 44.4196 23.856L44.3236 26H37.9556V23.6C36.7076 25.36 34.9156 26.384 32.6436 26.384C29.2836 26.384 26.9796 23.984 26.9796 20.048V12.144C26.9796 11.472 26.8196 11.216 26.3076 11.024L25.9556 10.896C25.5716 10.768 25.2836 10.64 25.0916 10.512L25.1876 8.336H31.8756V19.568C31.8756 21.712 32.5796 22.768 34.0516 22.768C36.1316 22.768 37.5396 20.976 37.5396 18.032V12.144C37.5396 11.472 37.3796 11.216 36.8676 11.024L36.5156 10.896C36.1316 10.768 35.7796 10.64 35.5876 10.512L35.6836 8.336H42.4356V21.808C42.4356 22.864 42.5956 23.152 43.1716 23.344L43.6516 23.504ZM52.1286 26.384C49.1526 26.384 47.4566 24.976 47.4566 21.552V11.536H44.8966V8.688L46.4006 8.304C47.5526 8.016 47.9686 7.632 48.1926 6.8L49.2806 2.96H52.3526V8.336H56.2886V11.536H52.3526V21.136C52.3526 22.288 52.7046 22.704 53.5046 22.704C54.1766 22.704 55.0726 22.32 56.0006 21.68L57.5686 23.92C55.9686 25.392 54.0486 26.384 52.1286 26.384ZM58.9369 26L58.8409 23.856C59.0329 23.76 59.4489 23.6 59.8329 23.472L60.3129 23.312C61.1449 23.024 61.3049 22.704 61.3049 21.808V4.976C61.3049 3.92 61.0489 3.728 60.2809 3.472L59.8009 3.312C59.4169 3.184 59.0329 3.056 58.8729 2.928L58.9689 0.783998H66.2009V21.808C66.2009 22.704 66.3929 23.056 67.1929 23.312L67.6729 23.472C68.0569 23.6 68.4729 23.76 68.6649 23.856L68.5689 26H58.9369ZM78.6834 26.384C73.0194 26.384 69.7554 22.768 69.7554 17.136C69.7554 11.536 73.5634 7.952 78.3954 7.952C80.7954 7.952 82.4914 8.688 83.8034 9.744C85.1794 10.864 86.3954 12.592 86.3954 14.512C86.3954 15.248 86.0114 15.44 84.5714 16.112C82.1714 17.232 78.0434 18.704 75.3554 19.344C75.0674 19.408 74.9714 19.504 74.9714 19.728C74.9714 21.168 76.2514 22.768 79.3554 22.768C81.3074 22.768 83.1634 21.904 84.6994 20.432L86.3954 22.512C84.7954 24.688 82.0114 26.384 78.6834 26.384ZM75.0034 16.496C75.7074 16.496 78.7794 15.632 80.5074 14.8C81.1154 14.512 81.2754 14.32 81.2754 14C81.2754 13.296 81.0194 12.656 80.6994 12.176C80.1554 11.376 79.2594 10.8 78.0754 10.8C76.2194 10.8 74.5554 12.272 74.5554 15.344C74.5554 15.568 74.5874 15.952 74.6194 16.208C74.6514 16.4 74.7474 16.496 75.0034 16.496ZM94.6911 26.384C91.7151 26.384 90.0191 24.976 90.0191 21.552V11.536H87.4591V8.688L88.9631 8.304C90.1151 8.016 90.5311 7.632 90.7551 6.8L91.8431 2.96H94.9151V8.336H98.8511V11.536H94.9151V21.136C94.9151 22.288 95.2671 22.704 96.0671 22.704C96.7391 22.704 97.6351 22.32 98.5631 21.68L100.131 23.92C98.5311 25.392 96.6111 26.384 94.6911 26.384Z"/>
<path d="M109.955 26L109.763 23.76C109.923 23.6 110.179 23.44 110.627 23.312L111.235 23.12C112.227 22.8 112.291 22.448 112.291 20.656V6.096C112.291 4.304 112.259 4.048 111.203 3.664L110.691 3.472C110.307 3.344 109.987 3.152 109.795 2.992L109.955 0.783998H118.851C124.675 0.783998 128.003 3.408 128.003 8.528C128.003 13.776 124.195 16.624 118.403 16.624H117.891C117.571 16.624 117.411 16.784 117.411 17.104V20.688C117.411 22.48 117.571 22.768 118.627 23.12L119.107 23.28C119.587 23.44 120.003 23.632 120.195 23.792L120.035 26H109.955ZM117.891 13.424H118.339C120.963 13.424 122.659 11.856 122.659 8.656C122.659 5.456 120.931 3.984 118.659 3.984H117.859C117.571 3.984 117.411 4.176 117.411 4.464V12.944C117.411 13.264 117.571 13.424 117.891 13.424ZM141.941 7.952C144.181 7.952 145.589 9.424 145.589 11.888V12.048C145.589 12.72 145.493 13.2 145.237 13.488C145.013 13.744 144.693 13.872 144.181 13.872H141.109L140.981 12.528C140.917 11.76 140.597 11.44 140.021 11.44C138.357 11.44 137.013 13.84 137.013 17.104V21.808C137.013 22.704 137.301 22.96 138.229 23.28L138.709 23.44C139.189 23.6 139.605 23.76 139.797 23.856L139.701 26H129.781L129.685 23.856C129.877 23.76 130.293 23.6 130.677 23.472L131.157 23.312C131.989 23.024 132.117 22.704 132.117 21.808V12.528C132.117 11.472 131.861 11.28 131.093 11.024L130.613 10.864C130.229 10.736 129.877 10.608 129.685 10.48L129.781 8.336H137.013V10.704C138.197 9.072 139.925 7.952 141.941 7.952ZM155.15 26.384C149.902 26.384 146.318 22.8 146.318 17.168C146.318 11.536 150.062 7.952 155.246 7.952C160.526 7.952 164.046 11.536 164.046 17.168C164.046 22.8 160.27 26.384 155.15 26.384ZM155.214 23.344C157.486 23.344 158.798 21.2 158.798 17.168C158.798 13.136 157.486 10.992 155.246 10.992C152.974 10.992 151.566 12.976 151.566 17.168C151.566 21.2 152.846 23.344 155.214 23.344ZM195.065 23.472C195.385 23.6 195.737 23.76 195.929 23.856L195.833 26H189.113V14.608C189.113 12.464 188.377 11.408 186.937 11.408C184.857 11.408 183.449 13.36 183.449 16.304V21.808C183.449 22.896 183.641 23.152 184.153 23.344L184.505 23.472C184.825 23.6 185.177 23.76 185.369 23.856L185.273 26H178.553V14.608C178.553 12.464 177.817 11.408 176.377 11.408C174.297 11.408 172.889 13.36 172.889 16.304V21.808C172.889 22.704 173.081 23.056 173.881 23.312L174.361 23.472C174.745 23.6 175.161 23.76 175.353 23.856L175.257 26H165.625L165.529 23.856C165.721 23.76 166.137 23.6 166.521 23.472L167.001 23.312C167.833 23.024 167.993 22.704 167.993 21.808V12.528C167.993 11.472 167.737 11.28 166.969 11.024L166.489 10.864C166.105 10.736 165.753 10.608 165.561 10.48L165.657 8.336H172.889V10.32C174.169 8.752 175.737 7.952 177.753 7.952C179.897 7.952 181.561 8.912 182.521 10.576C184.025 8.816 185.881 7.952 188.217 7.952C191.801 7.952 194.009 10.352 194.009 14.288V21.808C194.009 22.896 194.201 23.152 194.713 23.344L195.065 23.472ZM206.275 26.384C201.027 26.384 197.443 22.8 197.443 17.168C197.443 11.536 201.187 7.952 206.371 7.952C211.651 7.952 215.171 11.536 215.171 17.168C215.171 22.8 211.395 26.384 206.275 26.384ZM206.339 23.344C208.611 23.344 209.923 21.2 209.923 17.168C209.923 13.136 208.611 10.992 206.371 10.992C204.099 10.992 202.691 12.976 202.691 17.168C202.691 21.2 203.971 23.344 206.339 23.344ZM223.566 26.384C220.59 26.384 218.894 24.976 218.894 21.552V11.536H216.334V8.688L217.838 8.304C218.99 8.016 219.406 7.632 219.63 6.8L220.718 2.96H223.79V8.336H227.726V11.536H223.79V21.136C223.79 22.288 224.142 22.704 224.942 22.704C225.614 22.704 226.51 22.32 227.438 21.68L229.006 23.92C227.406 25.392 225.486 26.384 223.566 26.384ZM235.302 6.256C233.574 6.256 232.23 4.976 232.23 3.312C232.23 1.648 233.574 0.4 235.302 0.4C237.03 0.4 238.31 1.648 238.31 3.312C238.31 4.976 237.03 6.256 235.302 6.256ZM230.534 26L230.438 23.856C230.63 23.76 231.046 23.6 231.43 23.472L231.91 23.312C232.742 23.024 232.902 22.704 232.902 21.808V12.528C232.902 11.472 232.646 11.28 231.878 11.024L231.398 10.864C231.014 10.736 230.662 10.608 230.47 10.48L230.566 8.336H237.798V21.808C237.798 22.704 237.99 23.056 238.79 23.312L239.27 23.472C239.654 23.6 240.07 23.76 240.262 23.856L240.166 26H230.534ZM250.119 26.384C244.871 26.384 241.287 22.8 241.287 17.168C241.287 11.536 245.031 7.952 250.215 7.952C255.495 7.952 259.015 11.536 259.015 17.168C259.015 22.8 255.239 26.384 250.119 26.384ZM250.183 23.344C252.455 23.344 253.767 21.2 253.767 17.168C253.767 13.136 252.455 10.992 250.215 10.992C247.943 10.992 246.535 12.976 246.535 17.168C246.535 21.2 247.815 23.344 250.183 23.344ZM279.954 23.472C280.274 23.6 280.626 23.76 280.818 23.856L280.722 26H274.002V14.928C274.002 12.688 273.33 11.568 271.602 11.568C269.202 11.568 267.858 13.456 267.858 16.496V21.808C267.858 22.704 268.05 23.056 268.85 23.312L269.33 23.472C269.714 23.6 270.13 23.76 270.322 23.856L270.226 26H260.594L260.498 23.856C260.69 23.76 261.106 23.6 261.49 23.472L261.97 23.312C262.802 23.024 262.962 22.704 262.962 21.808V12.528C262.962 11.472 262.706 11.28 261.938 11.024L261.458 10.864C261.074 10.736 260.722 10.608 260.53 10.48L260.626 8.336H267.858V10.192C269.202 8.72 270.93 7.952 272.978 7.952C276.658 7.952 278.898 10.352 278.898 14.288V21.808C278.898 22.896 279.09 23.152 279.602 23.344L279.954 23.472Z"/>
</mask>
<path d="M12.6539 26.384C6.09388 26.384 2.63788 21.936 2.63788 13.552C2.63788 5.136 6.31788 0.4 12.7819 0.4C19.1819 0.4 22.8299 5.072 22.8299 13.392C22.8299 21.776 19.2139 26.384 12.6539 26.384ZM12.7179 23.216C15.6619 23.216 17.3899 19.6 17.3899 13.36C17.3899 7.12 15.6939 3.568 12.7499 3.568C9.86987 3.568 8.07788 7.216 8.07788 13.264C8.07788 19.6 9.80588 23.216 12.7179 23.216ZM43.6516 23.504C43.9716 23.6 44.2596 23.728 44.4196 23.856L44.3236 26H37.9556V23.6C36.7076 25.36 34.9156 26.384 32.6436 26.384C29.2836 26.384 26.9796 23.984 26.9796 20.048V12.144C26.9796 11.472 26.8196 11.216 26.3076 11.024L25.9556 10.896C25.5716 10.768 25.2836 10.64 25.0916 10.512L25.1876 8.336H31.8756V19.568C31.8756 21.712 32.5796 22.768 34.0516 22.768C36.1316 22.768 37.5396 20.976 37.5396 18.032V12.144C37.5396 11.472 37.3796 11.216 36.8676 11.024L36.5156 10.896C36.1316 10.768 35.7796 10.64 35.5876 10.512L35.6836 8.336H42.4356V21.808C42.4356 22.864 42.5956 23.152 43.1716 23.344L43.6516 23.504ZM52.1286 26.384C49.1526 26.384 47.4566 24.976 47.4566 21.552V11.536H44.8966V8.688L46.4006 8.304C47.5526 8.016 47.9686 7.632 48.1926 6.8L49.2806 2.96H52.3526V8.336H56.2886V11.536H52.3526V21.136C52.3526 22.288 52.7046 22.704 53.5046 22.704C54.1766 22.704 55.0726 22.32 56.0006 21.68L57.5686 23.92C55.9686 25.392 54.0486 26.384 52.1286 26.384ZM58.9369 26L58.8409 23.856C59.0329 23.76 59.4489 23.6 59.8329 23.472L60.3129 23.312C61.1449 23.024 61.3049 22.704 61.3049 21.808V4.976C61.3049 3.92 61.0489 3.728 60.2809 3.472L59.8009 3.312C59.4169 3.184 59.0329 3.056 58.8729 2.928L58.9689 0.783998H66.2009V21.808C66.2009 22.704 66.3929 23.056 67.1929 23.312L67.6729 23.472C68.0569 23.6 68.4729 23.76 68.6649 23.856L68.5689 26H58.9369ZM78.6834 26.384C73.0194 26.384 69.7554 22.768 69.7554 17.136C69.7554 11.536 73.5634 7.952 78.3954 7.952C80.7954 7.952 82.4914 8.688 83.8034 9.744C85.1794 10.864 86.3954 12.592 86.3954 14.512C86.3954 15.248 86.0114 15.44 84.5714 16.112C82.1714 17.232 78.0434 18.704 75.3554 19.344C75.0674 19.408 74.9714 19.504 74.9714 19.728C74.9714 21.168 76.2514 22.768 79.3554 22.768C81.3074 22.768 83.1634 21.904 84.6994 20.432L86.3954 22.512C84.7954 24.688 82.0114 26.384 78.6834 26.384ZM75.0034 16.496C75.7074 16.496 78.7794 15.632 80.5074 14.8C81.1154 14.512 81.2754 14.32 81.2754 14C81.2754 13.296 81.0194 12.656 80.6994 12.176C80.1554 11.376 79.2594 10.8 78.0754 10.8C76.2194 10.8 74.5554 12.272 74.5554 15.344C74.5554 15.568 74.5874 15.952 74.6194 16.208C74.6514 16.4 74.7474 16.496 75.0034 16.496ZM94.6911 26.384C91.7151 26.384 90.0191 24.976 90.0191 21.552V11.536H87.4591V8.688L88.9631 8.304C90.1151 8.016 90.5311 7.632 90.7551 6.8L91.8431 2.96H94.9151V8.336H98.8511V11.536H94.9151V21.136C94.9151 22.288 95.2671 22.704 96.0671 22.704C96.7391 22.704 97.6351 22.32 98.5631 21.68L100.131 23.92C98.5311 25.392 96.6111 26.384 94.6911 26.384Z" fill="white"/>
<path d="M109.955 26L109.763 23.76C109.923 23.6 110.179 23.44 110.627 23.312L111.235 23.12C112.227 22.8 112.291 22.448 112.291 20.656V6.096C112.291 4.304 112.259 4.048 111.203 3.664L110.691 3.472C110.307 3.344 109.987 3.152 109.795 2.992L109.955 0.783998H118.851C124.675 0.783998 128.003 3.408 128.003 8.528C128.003 13.776 124.195 16.624 118.403 16.624H117.891C117.571 16.624 117.411 16.784 117.411 17.104V20.688C117.411 22.48 117.571 22.768 118.627 23.12L119.107 23.28C119.587 23.44 120.003 23.632 120.195 23.792L120.035 26H109.955ZM117.891 13.424H118.339C120.963 13.424 122.659 11.856 122.659 8.656C122.659 5.456 120.931 3.984 118.659 3.984H117.859C117.571 3.984 117.411 4.176 117.411 4.464V12.944C117.411 13.264 117.571 13.424 117.891 13.424ZM141.941 7.952C144.181 7.952 145.589 9.424 145.589 11.888V12.048C145.589 12.72 145.493 13.2 145.237 13.488C145.013 13.744 144.693 13.872 144.181 13.872H141.109L140.981 12.528C140.917 11.76 140.597 11.44 140.021 11.44C138.357 11.44 137.013 13.84 137.013 17.104V21.808C137.013 22.704 137.301 22.96 138.229 23.28L138.709 23.44C139.189 23.6 139.605 23.76 139.797 23.856L139.701 26H129.781L129.685 23.856C129.877 23.76 130.293 23.6 130.677 23.472L131.157 23.312C131.989 23.024 132.117 22.704 132.117 21.808V12.528C132.117 11.472 131.861 11.28 131.093 11.024L130.613 10.864C130.229 10.736 129.877 10.608 129.685 10.48L129.781 8.336H137.013V10.704C138.197 9.072 139.925 7.952 141.941 7.952ZM155.15 26.384C149.902 26.384 146.318 22.8 146.318 17.168C146.318 11.536 150.062 7.952 155.246 7.952C160.526 7.952 164.046 11.536 164.046 17.168C164.046 22.8 160.27 26.384 155.15 26.384ZM155.214 23.344C157.486 23.344 158.798 21.2 158.798 17.168C158.798 13.136 157.486 10.992 155.246 10.992C152.974 10.992 151.566 12.976 151.566 17.168C151.566 21.2 152.846 23.344 155.214 23.344ZM195.065 23.472C195.385 23.6 195.737 23.76 195.929 23.856L195.833 26H189.113V14.608C189.113 12.464 188.377 11.408 186.937 11.408C184.857 11.408 183.449 13.36 183.449 16.304V21.808C183.449 22.896 183.641 23.152 184.153 23.344L184.505 23.472C184.825 23.6 185.177 23.76 185.369 23.856L185.273 26H178.553V14.608C178.553 12.464 177.817 11.408 176.377 11.408C174.297 11.408 172.889 13.36 172.889 16.304V21.808C172.889 22.704 173.081 23.056 173.881 23.312L174.361 23.472C174.745 23.6 175.161 23.76 175.353 23.856L175.257 26H165.625L165.529 23.856C165.721 23.76 166.137 23.6 166.521 23.472L167.001 23.312C167.833 23.024 167.993 22.704 167.993 21.808V12.528C167.993 11.472 167.737 11.28 166.969 11.024L166.489 10.864C166.105 10.736 165.753 10.608 165.561 10.48L165.657 8.336H172.889V10.32C174.169 8.752 175.737 7.952 177.753 7.952C179.897 7.952 181.561 8.912 182.521 10.576C184.025 8.816 185.881 7.952 188.217 7.952C191.801 7.952 194.009 10.352 194.009 14.288V21.808C194.009 22.896 194.201 23.152 194.713 23.344L195.065 23.472ZM206.275 26.384C201.027 26.384 197.443 22.8 197.443 17.168C197.443 11.536 201.187 7.952 206.371 7.952C211.651 7.952 215.171 11.536 215.171 17.168C215.171 22.8 211.395 26.384 206.275 26.384ZM206.339 23.344C208.611 23.344 209.923 21.2 209.923 17.168C209.923 13.136 208.611 10.992 206.371 10.992C204.099 10.992 202.691 12.976 202.691 17.168C202.691 21.2 203.971 23.344 206.339 23.344ZM223.566 26.384C220.59 26.384 218.894 24.976 218.894 21.552V11.536H216.334V8.688L217.838 8.304C218.99 8.016 219.406 7.632 219.63 6.8L220.718 2.96H223.79V8.336H227.726V11.536H223.79V21.136C223.79 22.288 224.142 22.704 224.942 22.704C225.614 22.704 226.51 22.32 227.438 21.68L229.006 23.92C227.406 25.392 225.486 26.384 223.566 26.384ZM235.302 6.256C233.574 6.256 232.23 4.976 232.23 3.312C232.23 1.648 233.574 0.4 235.302 0.4C237.03 0.4 238.31 1.648 238.31 3.312C238.31 4.976 237.03 6.256 235.302 6.256ZM230.534 26L230.438 23.856C230.63 23.76 231.046 23.6 231.43 23.472L231.91 23.312C232.742 23.024 232.902 22.704 232.902 21.808V12.528C232.902 11.472 232.646 11.28 231.878 11.024L231.398 10.864C231.014 10.736 230.662 10.608 230.47 10.48L230.566 8.336H237.798V21.808C237.798 22.704 237.99 23.056 238.79 23.312L239.27 23.472C239.654 23.6 240.07 23.76 240.262 23.856L240.166 26H230.534ZM250.119 26.384C244.871 26.384 241.287 22.8 241.287 17.168C241.287 11.536 245.031 7.952 250.215 7.952C255.495 7.952 259.015 11.536 259.015 17.168C259.015 22.8 255.239 26.384 250.119 26.384ZM250.183 23.344C252.455 23.344 253.767 21.2 253.767 17.168C253.767 13.136 252.455 10.992 250.215 10.992C247.943 10.992 246.535 12.976 246.535 17.168C246.535 21.2 247.815 23.344 250.183 23.344ZM279.954 23.472C280.274 23.6 280.626 23.76 280.818 23.856L280.722 26H274.002V14.928C274.002 12.688 273.33 11.568 271.602 11.568C269.202 11.568 267.858 13.456 267.858 16.496V21.808C267.858 22.704 268.05 23.056 268.85 23.312L269.33 23.472C269.714 23.6 270.13 23.76 270.322 23.856L270.226 26H260.594L260.498 23.856C260.69 23.76 261.106 23.6 261.49 23.472L261.97 23.312C262.802 23.024 262.962 22.704 262.962 21.808V12.528C262.962 11.472 262.706 11.28 261.938 11.024L261.458 10.864C261.074 10.736 260.722 10.608 260.53 10.48L260.626 8.336H267.858V10.192C269.202 8.72 270.93 7.952 272.978 7.952C276.658 7.952 278.898 10.352 278.898 14.288V21.808C278.898 22.896 279.09 23.152 279.602 23.344L279.954 23.472Z" fill="#00FF38"/>
<path d="M12.6539 25.384C9.62013 25.384 7.43396 24.3691 5.97452 22.4972C4.48193 20.5827 3.63787 17.6298 3.63787 13.552H1.63787C1.63787 17.8582 2.52183 21.3213 4.39723 23.7269C6.30579 26.1749 9.12762 27.384 12.6539 27.384V25.384ZM3.63787 13.552C3.63787 9.47092 4.53263 6.43003 6.07713 4.43149C7.59263 2.47046 9.81965 1.4 12.7819 1.4V-0.6C9.2801 -0.6 6.43512 0.697539 4.49462 3.20851C2.58311 5.68197 1.63787 9.21707 1.63787 13.552H3.63787ZM12.7819 1.4C15.7135 1.4 17.9166 2.45551 19.4156 4.38875C20.9433 6.3591 21.8299 9.35943 21.8299 13.392H23.8299C23.8299 9.10457 22.8924 5.60889 20.9962 3.16325C19.0711 0.680486 16.2503 -0.6 12.7819 -0.6V1.4ZM21.8299 13.392C21.8299 17.4604 20.9497 20.4564 19.4148 22.4152C17.9097 24.3358 15.6776 25.384 12.6539 25.384V27.384C16.1901 27.384 19.046 26.1282 20.989 23.6488C22.902 21.2076 23.8299 17.7076 23.8299 13.392H21.8299ZM12.7179 24.216C14.7006 24.216 16.1567 22.961 17.0611 21.0571C17.952 19.1819 18.3899 16.5485 18.3899 13.36H16.3899C16.3899 16.4115 15.9638 18.7061 15.2546 20.1989C14.5591 21.663 13.6792 22.216 12.7179 22.216V24.216ZM18.3899 13.36C18.3899 10.174 17.9607 7.55566 17.0772 5.69507C16.1775 3.80031 14.7269 2.568 12.7499 2.568V4.568C13.7169 4.568 14.5862 5.11168 15.2705 6.55292C15.9711 8.02834 16.3899 10.3059 16.3899 13.36H18.3899ZM12.7499 2.568C10.7938 2.568 9.34202 3.83737 8.43391 5.71204C7.53408 7.56961 7.07787 10.1628 7.07787 13.264H9.07787C9.07787 10.3172 9.51767 8.06239 10.2338 6.58395C10.9417 5.12263 11.826 4.568 12.7499 4.568V2.568ZM7.07787 13.264C7.07787 16.4991 7.51545 19.1549 8.40062 21.0409C9.29834 22.9536 10.745 24.216 12.7179 24.216V22.216C11.7787 22.216 10.9054 21.6704 10.2111 20.1911C9.5043 18.6851 9.07787 16.3649 9.07787 13.264H7.07787ZM43.6516 23.504L43.3354 24.4527L43.3498 24.4575L43.3643 24.4618L43.6516 23.504ZM44.4196 23.856L45.4186 23.9007L45.4414 23.3928L45.0443 23.0751L44.4196 23.856ZM44.3236 26V27H45.2799L45.3226 26.0447L44.3236 26ZM37.9556 26H36.9556V27H37.9556V26ZM37.9556 23.6H38.9556V20.4609L37.1399 23.0216L37.9556 23.6ZM26.3076 11.024L26.6588 10.0876L26.6494 10.0842L26.3076 11.024ZM25.9556 10.896L26.2974 9.95621L26.2847 9.95159L26.2719 9.94732L25.9556 10.896ZM25.0916 10.512L24.0926 10.4679L24.0677 11.0313L24.5369 11.344L25.0916 10.512ZM25.1876 8.336V7.336H24.2308L24.1886 8.29192L25.1876 8.336ZM31.8756 8.336H32.8756V7.336H31.8756V8.336ZM36.8676 11.024L37.2188 10.0876L37.2094 10.0842L36.8676 11.024ZM36.5156 10.896L36.8574 9.95621L36.8447 9.95159L36.8318 9.94731L36.5156 10.896ZM35.5876 10.512L34.5886 10.4679L34.5637 11.0313L35.0329 11.344L35.5876 10.512ZM35.6836 8.336V7.336H34.7268L34.6846 8.29192L35.6836 8.336ZM42.4356 8.336H43.4356V7.336H42.4356V8.336ZM43.1716 23.344L42.8554 24.2927L43.1716 23.344ZM43.3643 24.4618C43.4883 24.499 43.5972 24.5399 43.6818 24.5784C43.7745 24.6205 43.8045 24.6446 43.7949 24.6369L45.0443 23.0751C44.7331 22.8262 44.2976 22.6538 43.939 22.5462L43.3643 24.4618ZM43.4206 23.8113L43.3246 25.9553L45.3226 26.0447L45.4186 23.9007L43.4206 23.8113ZM44.3236 25H37.9556V27H44.3236V25ZM38.9556 26V23.6H36.9556V26H38.9556ZM37.1399 23.0216C36.0661 24.5358 34.5692 25.384 32.6436 25.384V27.384C35.2621 27.384 37.3491 26.1842 38.7714 24.1784L37.1399 23.0216ZM32.6436 25.384C31.2129 25.384 30.0765 24.8799 29.2905 24.0181C28.497 23.1481 27.9796 21.823 27.9796 20.048H25.9796C25.9796 22.209 26.6143 24.0519 27.8128 25.3659C29.0187 26.6881 30.7143 27.384 32.6436 27.384V25.384ZM27.9796 20.048V12.144H25.9796V20.048H27.9796ZM27.9796 12.144C27.9796 11.7607 27.9412 11.2998 27.6914 10.8866C27.4208 10.4391 27.0115 10.2199 26.6587 10.0877L25.9565 11.9603C26.0364 11.9903 26.0577 12.0065 26.0514 12.0021C26.0467 11.9987 26.0349 11.9898 26.0202 11.9743C26.0052 11.9585 25.9913 11.9403 25.9799 11.9214C25.9565 11.8827 25.9577 11.8648 25.9641 11.8985C25.9713 11.9365 25.9796 12.0109 25.9796 12.144H27.9796ZM26.6494 10.0842L26.2974 9.95621L25.6139 11.8358L25.9659 11.9638L26.6494 10.0842ZM26.2719 9.94732C25.919 9.8297 25.729 9.73504 25.6463 9.67995L24.5369 11.344C24.8383 11.545 25.2242 11.7063 25.6394 11.8447L26.2719 9.94732ZM26.0907 10.5561L26.1867 8.38007L24.1886 8.29192L24.0926 10.4679L26.0907 10.5561ZM25.1876 9.336H31.8756V7.336H25.1876V9.336ZM30.8756 8.336V19.568H32.8756V8.336H30.8756ZM30.8756 19.568C30.8756 20.7159 31.0579 21.7558 31.5834 22.5324C32.1589 23.3829 33.04 23.768 34.0516 23.768V21.768C33.5912 21.768 33.3843 21.6251 33.2398 21.4116C33.0454 21.1242 32.8756 20.5641 32.8756 19.568H30.8756ZM34.0516 23.768C35.4113 23.768 36.5777 23.1679 37.3756 22.104C38.1538 21.0665 38.5396 19.6508 38.5396 18.032H36.5396C36.5396 19.3572 36.2215 20.3095 35.7756 20.904C35.3495 21.4721 34.772 21.768 34.0516 21.768V23.768ZM38.5396 18.032V12.144H36.5396V18.032H38.5396ZM38.5396 12.144C38.5396 11.7607 38.5012 11.2998 38.2514 10.8866C37.9808 10.4391 37.5715 10.2199 37.2188 10.0877L36.5165 11.9603C36.5965 11.9903 36.6177 12.0065 36.6114 12.0021C36.6067 11.9987 36.5949 11.9898 36.5802 11.9743C36.5652 11.9585 36.5513 11.9403 36.5399 11.9214C36.5165 11.8827 36.5177 11.8648 36.5241 11.8985C36.5313 11.9365 36.5396 12.0109 36.5396 12.144H38.5396ZM37.2094 10.0842L36.8574 9.95621L36.1739 11.8358L36.5259 11.9638L37.2094 10.0842ZM36.8318 9.94731C36.6444 9.88485 36.483 9.8283 36.351 9.77552C36.2858 9.74945 36.2347 9.72699 36.1959 9.70819C36.1553 9.68851 36.1404 9.67864 36.1423 9.67995L35.0329 11.344C35.3589 11.5614 35.8522 11.729 36.1994 11.8447L36.8318 9.94731ZM36.5867 10.5561L36.6827 8.38007L34.6846 8.29192L34.5886 10.4679L36.5867 10.5561ZM35.6836 9.336H42.4356V7.336H35.6836V9.336ZM41.4356 8.336V21.808H43.4356V8.336H41.4356ZM41.4356 21.808C41.4356 22.3331 41.4653 22.8832 41.6901 23.3409C41.9685 23.9076 42.441 24.1545 42.8554 24.2927L43.4879 22.3953C43.3952 22.3644 43.3851 22.3505 43.4055 22.3655C43.4395 22.3905 43.4703 22.4288 43.4852 22.4591C43.493 22.4749 43.4762 22.4487 43.4607 22.3332C43.4452 22.2181 43.4356 22.0523 43.4356 21.808H41.4356ZM42.8554 24.2927L43.3354 24.4527L43.9679 22.5553L43.4879 22.3953L42.8554 24.2927ZM47.4566 11.536H48.4566V10.536H47.4566V11.536ZM44.8966 11.536H43.8966V12.536H44.8966V11.536ZM44.8966 8.688L44.6492 7.71908L43.8966 7.91124V8.688H44.8966ZM46.4006 8.304L46.1581 7.33384L46.1532 7.33508L46.4006 8.304ZM48.1926 6.8L47.2304 6.52737L47.227 6.54003L48.1926 6.8ZM49.2806 2.96V1.96H48.5246L48.3185 2.6874L49.2806 2.96ZM52.3526 2.96H53.3526V1.96H52.3526V2.96ZM52.3526 8.336H51.3526V9.336H52.3526V8.336ZM56.2886 8.336H57.2886V7.336H56.2886V8.336ZM56.2886 11.536V12.536H57.2886V11.536H56.2886ZM52.3526 11.536V10.536H51.3526V11.536H52.3526ZM56.0006 21.68L56.8199 21.1065L56.2504 20.293L55.4329 20.8568L56.0006 21.68ZM57.5686 23.92L58.2457 24.6559L58.8897 24.0634L58.3879 23.3465L57.5686 23.92ZM52.1286 25.384C50.7814 25.384 49.9141 25.0645 49.3765 24.5378C48.8426 24.0145 48.4566 23.1126 48.4566 21.552H46.4566C46.4566 23.4154 46.9187 24.9295 47.9767 25.9662C49.0312 26.9995 50.4999 27.384 52.1286 27.384V25.384ZM48.4566 21.552V11.536H46.4566V21.552H48.4566ZM47.4566 10.536H44.8966V12.536H47.4566V10.536ZM45.8966 11.536V8.688H43.8966V11.536H45.8966ZM45.144 9.65692L46.648 9.27292L46.1532 7.33508L44.6492 7.71908L45.144 9.65692ZM46.6432 9.27414C47.2734 9.11658 47.8435 8.90164 48.2945 8.51603C48.7736 8.10638 49.0139 7.59593 49.1582 7.05997L47.227 6.54003C47.1473 6.83607 47.0676 6.93362 46.9947 6.99597C46.8937 7.08236 46.6799 7.20341 46.1581 7.33386L46.6432 9.27414ZM49.1548 7.0726L50.2428 3.2326L48.3185 2.6874L47.2305 6.5274L49.1548 7.0726ZM49.2806 3.96H52.3526V1.96H49.2806V3.96ZM51.3526 2.96V8.336H53.3526V2.96H51.3526ZM52.3526 9.336H56.2886V7.336H52.3526V9.336ZM55.2886 8.336V11.536H57.2886V8.336H55.2886ZM56.2886 10.536H52.3526V12.536H56.2886V10.536ZM51.3526 11.536V21.136H53.3526V11.536H51.3526ZM51.3526 21.136C51.3526 21.7657 51.4387 22.4377 51.8317 22.9561C52.2806 23.5482 52.9336 23.704 53.5046 23.704V21.704C53.3857 21.704 53.3464 21.6877 53.3519 21.6899C53.3703 21.6971 53.4035 21.7189 53.4255 21.7479C53.4402 21.7672 53.4189 21.7499 53.3954 21.6462C53.3716 21.541 53.3526 21.3783 53.3526 21.136H51.3526ZM53.5046 23.704C54.4883 23.704 55.594 23.1752 56.5684 22.5032L55.4329 20.8568C54.5512 21.4648 53.8649 21.704 53.5046 21.704V23.704ZM55.1814 22.2535L56.7494 24.4935L58.3879 23.3465L56.8199 21.1065L55.1814 22.2535ZM56.8916 23.1841C55.3994 24.5568 53.7101 25.384 52.1286 25.384V27.384C54.3872 27.384 56.5378 26.2272 58.2457 24.6559L56.8916 23.1841ZM58.9369 26L57.9379 26.0447L57.9807 27H58.9369V26ZM58.8409 23.856L58.3937 22.9616L57.8128 23.252L57.8419 23.9007L58.8409 23.856ZM59.8329 23.472L60.1491 24.4207L59.8329 23.472ZM60.3129 23.312L60.6291 24.2607L60.64 24.257L60.3129 23.312ZM60.2809 3.472L60.5971 2.52332L60.5971 2.52331L60.2809 3.472ZM59.8009 3.312L59.4846 4.26068V4.26068L59.8009 3.312ZM58.8729 2.928L57.8739 2.88327L57.8511 3.39123L58.2482 3.70887L58.8729 2.928ZM58.9689 0.783998V-0.216002H58.0126L57.9699 0.739267L58.9689 0.783998ZM66.2009 0.783998H67.2009V-0.216002H66.2009V0.783998ZM67.1929 23.312L67.5091 22.3632L67.4977 22.3596L67.1929 23.312ZM67.6729 23.472L67.3566 24.4207L67.6729 23.472ZM68.6649 23.856L69.6639 23.9007L69.6929 23.252L69.1121 22.9616L68.6649 23.856ZM68.5689 26V27H69.5251L69.5679 26.0447L68.5689 26ZM59.9359 25.9553L59.8399 23.8113L57.8419 23.9007L57.9379 26.0447L59.9359 25.9553ZM59.2881 24.7504C59.4139 24.6875 59.7744 24.5456 60.1491 24.4207L59.5166 22.5233C59.1233 22.6544 58.6518 22.8325 58.3937 22.9616L59.2881 24.7504ZM60.1491 24.4207L60.6291 24.2607L59.9967 22.3633L59.5166 22.5233L60.1491 24.4207ZM60.64 24.257C61.1165 24.092 61.6361 23.8449 61.9664 23.322C62.2767 22.8306 62.3049 22.2657 62.3049 21.808H60.3049C60.3049 22.0098 60.2952 22.1315 60.2818 22.2086C60.2695 22.2786 60.2596 22.279 60.2754 22.254C60.3176 22.1871 60.3413 22.2439 59.9858 22.367L60.64 24.257ZM62.3049 21.808V4.976H60.3049V21.808H62.3049ZM62.3049 4.976C62.3049 4.41999 62.2506 3.8139 61.8791 3.32159C61.5098 2.83228 60.9608 2.64455 60.5971 2.52332L59.9646 4.42068C60.1477 4.48171 60.2404 4.52007 60.2938 4.54857C60.335 4.57061 60.3124 4.56583 60.2827 4.52641C60.2536 4.48784 60.2607 4.4732 60.2744 4.53809C60.2901 4.61217 60.3049 4.74451 60.3049 4.976H62.3049ZM60.5971 2.52331L60.1171 2.36331L59.4846 4.26068L59.9646 4.42068L60.5971 2.52331ZM60.1171 2.36332C59.9187 2.29717 59.7523 2.24146 59.6164 2.18842C59.5499 2.16247 59.5044 2.14239 59.4758 2.12819C59.4411 2.11096 59.4582 2.11566 59.4976 2.14713L58.2482 3.70887C58.4596 3.87803 58.7264 3.98798 58.8893 4.05158C59.0814 4.12654 59.2991 4.19883 59.4846 4.26068L60.1171 2.36332ZM59.8719 2.97273L59.9679 0.82873L57.9699 0.739267L57.8739 2.88327L59.8719 2.97273ZM58.9689 1.784H66.2009V-0.216002H58.9689V1.784ZM65.2009 0.783998V21.808H67.2009V0.783998H65.2009ZM65.2009 21.808C65.2009 22.2861 65.2421 22.8491 65.5538 23.3378C65.8872 23.8605 66.402 24.1089 66.8881 24.2644L67.4977 22.3596C67.1837 22.2591 67.2025 22.2035 67.2399 22.2622C67.2514 22.2801 67.2397 22.2726 67.2263 22.2011C67.2119 22.1238 67.2009 22.0025 67.2009 21.808H65.2009ZM66.8766 24.2607L67.3566 24.4207L67.9891 22.5233L67.5091 22.3633L66.8766 24.2607ZM67.3566 24.4207C67.7313 24.5456 68.0918 24.6875 68.2177 24.7504L69.1121 22.9616C68.8539 22.8325 68.3824 22.6544 67.9891 22.5233L67.3566 24.4207ZM67.6659 23.8113L67.5699 25.9553L69.5679 26.0447L69.6639 23.9007L67.6659 23.8113ZM68.5689 25H58.9369V27H68.5689V25ZM83.8034 9.744L84.4347 8.96843L84.4304 8.96499L83.8034 9.744ZM84.5714 16.112L84.9943 17.0182L84.5714 16.112ZM75.3554 19.344L75.5723 20.3202L75.5797 20.3186L75.587 20.3168L75.3554 19.344ZM84.6994 20.432L85.4744 19.8001L84.7897 18.9604L84.0075 19.71L84.6994 20.432ZM86.3954 22.512L87.201 23.1044L87.6599 22.4804L87.1704 21.8801L86.3954 22.512ZM80.5074 14.8L80.0793 13.8962L80.0736 13.899L80.5074 14.8ZM80.6994 12.176L81.5315 11.6213L81.5263 11.6137L80.6994 12.176ZM74.6194 16.208L73.6271 16.332L73.6296 16.3523L73.633 16.3724L74.6194 16.208ZM78.6834 25.384C76.0705 25.384 74.1214 24.556 72.8212 23.1841C71.514 21.8049 70.7554 19.7622 70.7554 17.136H68.7554C68.7554 20.1418 69.6288 22.7231 71.3696 24.5599C73.1174 26.404 75.6322 27.384 78.6834 27.384V25.384ZM70.7554 17.136C70.7554 12.0642 74.1394 8.952 78.3954 8.952V6.952C72.9873 6.952 68.7554 11.0078 68.7554 17.136H70.7554ZM78.3954 8.952C80.563 8.952 82.0387 9.60733 83.1764 10.523L84.4304 8.96499C82.9441 7.76867 81.0277 6.952 78.3954 6.952V8.952ZM83.1721 10.5196C84.4226 11.5374 85.3954 13.0087 85.3954 14.512H87.3954C87.3954 12.1753 85.9361 10.1906 84.4346 8.96844L83.1721 10.5196ZM85.3954 14.512C85.3954 14.6119 85.3818 14.6109 85.3986 14.5728C85.4188 14.5274 85.44 14.5216 85.3932 14.5595C85.3341 14.6075 85.2219 14.6807 85.0026 14.7948C84.7867 14.907 84.5133 15.0356 84.1485 15.2058L84.9943 17.0182C85.66 16.7075 86.2578 16.4336 86.6535 16.1125C86.8828 15.9264 87.09 15.6926 87.2271 15.3832C87.361 15.0811 87.3954 14.7801 87.3954 14.512H85.3954ZM84.1485 15.2058C81.8052 16.2993 77.7411 17.748 75.1238 18.3712L75.587 20.3168C78.3456 19.66 82.5375 18.1647 84.9943 17.0182L84.1485 15.2058ZM75.1384 18.3678C74.9535 18.4089 74.6189 18.4983 74.3483 18.7689C74.0285 19.0886 73.9714 19.4742 73.9714 19.728H75.9714C75.9714 19.7387 75.9709 19.8026 75.9418 19.8918C75.9093 19.9918 75.8501 20.0955 75.7625 20.1831C75.6812 20.2644 75.6046 20.3027 75.5723 20.3167C75.5425 20.3296 75.5356 20.3283 75.5723 20.3202L75.1384 18.3678ZM73.9714 19.728C73.9714 20.7531 74.43 21.7951 75.3657 22.5616C76.2962 23.3239 77.6362 23.768 79.3554 23.768V21.768C77.9706 21.768 77.1185 21.4121 76.6331 21.0144C76.1527 20.6209 75.9714 20.1429 75.9714 19.728H73.9714ZM79.3554 23.768C81.6148 23.768 83.7083 22.7668 85.3913 21.154L84.0075 19.71C82.6184 21.0412 80.9999 21.768 79.3554 21.768V23.768ZM83.9244 21.0639L85.6204 23.1439L87.1704 21.8801L85.4744 19.8001L83.9244 21.0639ZM85.5897 21.9196C84.1607 23.8631 81.6649 25.384 78.6834 25.384V27.384C82.3578 27.384 85.43 25.5129 87.201 23.1044L85.5897 21.9196ZM75.0034 17.496C75.3061 17.496 75.7323 17.4155 76.1388 17.3232C76.5792 17.2232 77.1053 17.083 77.6574 16.9182C78.7526 16.5913 80.0092 16.1497 80.9412 15.701L80.0736 13.899C79.2775 14.2823 78.1341 14.6887 77.0853 15.0018C76.5655 15.157 76.0835 15.2848 75.696 15.3728C75.5019 15.4169 75.3385 15.4493 75.2101 15.4703C75.1461 15.4807 75.0953 15.4876 75.0568 15.4917C75.0161 15.496 75.0004 15.496 75.0034 15.496V17.496ZM80.9355 15.7037C81.2565 15.5517 81.5965 15.3657 81.8496 15.0952C82.1653 14.7578 82.2754 14.3723 82.2754 14H80.2754C80.2754 13.9962 80.2759 13.9471 80.3009 13.8783C80.3273 13.8054 80.3651 13.7545 80.3891 13.7288C80.4072 13.7095 80.4044 13.7186 80.3497 13.7531C80.2957 13.7873 80.2109 13.8339 80.0793 13.8963L80.9355 15.7037ZM82.2754 14C82.2754 13.0568 81.9352 12.227 81.5314 11.6213L79.8673 12.7307C80.1035 13.085 80.2754 13.5352 80.2754 14H82.2754ZM81.5263 11.6137C80.813 10.5647 79.6194 9.8 78.0754 9.8V11.8C78.8994 11.8 79.4978 12.1873 79.8725 12.7383L81.5263 11.6137ZM78.0754 9.8C76.8715 9.8 75.7095 10.2835 74.8618 11.2672C74.0208 12.2432 73.5554 13.6312 73.5554 15.344H75.5554C75.5554 13.9848 75.9219 13.1008 76.3769 12.5728C76.8253 12.0525 77.4232 11.8 78.0754 11.8V9.8ZM73.5554 15.344C73.5554 15.6267 73.5927 16.0565 73.6271 16.332L75.6117 16.084C75.5821 15.8475 75.5554 15.5093 75.5554 15.344H73.5554ZM73.633 16.3724C73.6693 16.5903 73.7722 16.9405 74.1027 17.2049C74.4177 17.4569 74.7733 17.496 75.0034 17.496V15.496C74.9775 15.496 75.1571 15.4871 75.3521 15.6431C75.5626 15.8115 75.6015 16.0177 75.6058 16.0436L73.633 16.3724ZM90.0191 11.536H91.0191V10.536H90.0191V11.536ZM87.4591 11.536H86.4591V12.536H87.4591V11.536ZM87.4591 8.688L87.2117 7.71908L86.4591 7.91124V8.688H87.4591ZM88.9631 8.304L88.7206 7.33384L88.7157 7.33508L88.9631 8.304ZM90.7551 6.8L89.7929 6.52737L89.7895 6.54003L90.7551 6.8ZM91.8431 2.96V1.96H91.0871L90.881 2.6874L91.8431 2.96ZM94.9151 2.96H95.9151V1.96H94.9151V2.96ZM94.9151 8.336H93.9151V9.336H94.9151V8.336ZM98.8511 8.336H99.8511V7.336H98.8511V8.336ZM98.8511 11.536V12.536H99.8511V11.536H98.8511ZM94.9151 11.536V10.536H93.9151V11.536H94.9151ZM98.5631 21.68L99.3824 21.1065L98.8129 20.293L97.9954 20.8568L98.5631 21.68ZM100.131 23.92L100.808 24.6559L101.452 24.0634L100.95 23.3465L100.131 23.92ZM94.6911 25.384C93.3439 25.384 92.4766 25.0645 91.939 24.5378C91.4051 24.0145 91.0191 23.1126 91.0191 21.552H89.0191C89.0191 23.4154 89.4812 24.9295 90.5392 25.9662C91.5937 26.9995 93.0624 27.384 94.6911 27.384V25.384ZM91.0191 21.552V11.536H89.0191V21.552H91.0191ZM90.0191 10.536H87.4591V12.536H90.0191V10.536ZM88.4591 11.536V8.688H86.4591V11.536H88.4591ZM87.7065 9.65692L89.2105 9.27292L88.7157 7.33508L87.2117 7.71908L87.7065 9.65692ZM89.2057 9.27414C89.8359 9.11658 90.406 8.90164 90.857 8.51603C91.3361 8.10638 91.5764 7.59593 91.7207 7.05997L89.7895 6.54003C89.7098 6.83607 89.6301 6.93362 89.5572 6.99597C89.4562 7.08236 89.2424 7.20341 88.7206 7.33386L89.2057 9.27414ZM91.7173 7.0726L92.8053 3.2326L90.881 2.6874L89.793 6.5274L91.7173 7.0726ZM91.8431 3.96H94.9151V1.96H91.8431V3.96ZM93.9151 2.96V8.336H95.9151V2.96H93.9151ZM94.9151 9.336H98.8511V7.336H94.9151V9.336ZM97.8511 8.336V11.536H99.8511V8.336H97.8511ZM98.8511 10.536H94.9151V12.536H98.8511V10.536ZM93.9151 11.536V21.136H95.9151V11.536H93.9151ZM93.9151 21.136C93.9151 21.7657 94.0012 22.4377 94.3942 22.9561C94.8431 23.5482 95.4961 23.704 96.0671 23.704V21.704C95.9482 21.704 95.9089 21.6877 95.9144 21.6899C95.9328 21.6971 95.966 21.7189 95.988 21.7479C96.0027 21.7672 95.9814 21.7499 95.9579 21.6462C95.9341 21.541 95.9151 21.3783 95.9151 21.136H93.9151ZM96.0671 23.704C97.0508 23.704 98.1565 23.1752 99.1309 22.5032L97.9954 20.8568C97.1137 21.4648 96.4274 21.704 96.0671 21.704V23.704ZM97.7439 22.2535L99.3119 24.4935L100.95 23.3465L99.3824 21.1065L97.7439 22.2535ZM99.4541 23.1841C97.9619 24.5568 96.2726 25.384 94.6911 25.384V27.384C96.9497 27.384 99.1003 26.2272 100.808 24.6559L99.4541 23.1841ZM109.955 26L108.959 26.0854L109.037 27H109.955V26ZM109.763 23.76L109.056 23.0529L108.727 23.3819L108.767 23.8454L109.763 23.76ZM110.627 23.312L110.902 24.2735L110.915 24.2697L110.928 24.2656L110.627 23.312ZM111.235 23.12L111.536 24.0736L111.542 24.0717L111.235 23.12ZM111.203 3.664L110.852 4.60037L110.861 4.60379L111.203 3.664ZM110.691 3.472L111.042 2.53567L111.025 2.52917L111.007 2.52331L110.691 3.472ZM109.795 2.992L108.797 2.91972L108.76 3.43164L109.155 3.76022L109.795 2.992ZM109.955 0.783998V-0.216002H109.025L108.957 0.711724L109.955 0.783998ZM118.627 23.12L118.943 22.1713L118.627 23.12ZM119.107 23.28L118.791 24.2287L119.107 23.28ZM120.195 23.792L121.192 23.8643L121.229 23.3524L120.835 23.0238L120.195 23.792ZM120.035 26V27H120.965L121.032 26.0723L120.035 26ZM110.951 25.9146L110.759 23.6746L108.767 23.8454L108.959 26.0854L110.951 25.9146ZM110.47 24.4671C110.478 24.4586 110.568 24.3688 110.902 24.2735L110.352 22.3505C109.789 22.5112 109.367 22.7414 109.056 23.0529L110.47 24.4671ZM110.928 24.2656L111.536 24.0736L110.934 22.1664L110.326 22.3584L110.928 24.2656ZM111.542 24.0717C111.823 23.9809 112.133 23.86 112.407 23.6603C112.709 23.4402 112.926 23.1565 113.064 22.8096C113.19 22.4935 113.238 22.1529 113.263 21.8259C113.287 21.4941 113.291 21.1013 113.291 20.656H111.291C111.291 21.1067 111.287 21.4299 111.268 21.6781C111.249 21.9311 111.22 22.0345 111.206 22.0704C111.201 22.0819 111.202 22.0755 111.213 22.062C111.223 22.0481 111.232 22.0419 111.23 22.0437C111.213 22.056 111.142 22.0991 110.928 22.1683L111.542 24.0717ZM113.291 20.656V6.096H111.291V20.656H113.291ZM113.291 6.096C113.291 5.65553 113.289 5.26777 113.267 4.94501C113.245 4.62681 113.199 4.28604 113.066 3.96738C112.748 3.20504 112.093 2.92346 111.545 2.72421L110.861 4.60379C111.111 4.69451 111.207 4.7465 111.245 4.77336C111.257 4.78146 111.25 4.77842 111.238 4.76335C111.225 4.74759 111.219 4.73533 111.22 4.73661C111.227 4.75396 111.255 4.83719 111.272 5.08298C111.288 5.32423 111.291 5.64047 111.291 6.096H113.291ZM111.554 2.72767L111.042 2.53567L110.34 4.40833L110.852 4.60033L111.554 2.72767ZM111.007 2.52331C110.737 2.43328 110.528 2.30104 110.435 2.22378L109.155 3.76022C109.446 4.00296 109.877 4.25472 110.375 4.42068L111.007 2.52331ZM110.792 3.06427L110.952 0.856273L108.957 0.711724L108.797 2.91972L110.792 3.06427ZM109.955 1.784H118.851V-0.216002H109.955V1.784ZM118.851 1.784C121.631 1.784 123.657 2.41262 124.972 3.50519C126.256 4.57212 127.003 6.1982 127.003 8.528H129.003C129.003 5.7378 128.086 3.49187 126.25 1.96681C124.445 0.467382 121.894 -0.216002 118.851 -0.216002V1.784ZM127.003 8.528C127.003 10.8883 126.159 12.6132 124.743 13.7693C123.299 14.9479 121.149 15.624 118.403 15.624V17.624C121.449 17.624 124.099 16.8761 126.007 15.3187C127.943 13.7388 129.003 11.4157 129.003 8.528H127.003ZM118.403 15.624H117.891V17.624H118.403V15.624ZM117.891 15.624C117.577 15.624 117.157 15.7032 116.824 16.0369C116.49 16.3706 116.411 16.7899 116.411 17.104H118.411C118.411 17.1043 118.411 17.1454 118.39 17.2102C118.366 17.2799 118.32 17.3689 118.238 17.4511C118.156 17.5333 118.067 17.5794 117.997 17.6027C117.932 17.6243 117.891 17.624 117.891 17.624V15.624ZM116.411 17.104V20.688H118.411V17.104H116.411ZM116.411 20.688C116.411 21.1423 116.421 21.5423 116.458 21.8845C116.496 22.2252 116.568 22.5739 116.731 22.8954C117.098 23.6224 117.762 23.8859 118.311 24.0687L118.943 22.1713C118.696 22.0889 118.585 22.0361 118.53 22.0009C118.509 21.9874 118.506 21.9826 118.511 21.9875C118.516 21.9933 118.518 21.9975 118.515 21.9926C118.506 21.9741 118.472 21.8928 118.446 21.6645C118.421 21.4377 118.411 21.1297 118.411 20.688H116.411ZM118.311 24.0687L118.791 24.2287L119.423 22.3313L118.943 22.1713L118.311 24.0687ZM118.791 24.2287C119.001 24.2989 119.188 24.3731 119.335 24.4417C119.497 24.5174 119.557 24.5624 119.555 24.5602L120.835 23.0238C120.488 22.7342 119.914 22.4949 119.423 22.3313L118.791 24.2287ZM119.197 23.7197L119.037 25.9277L121.032 26.0723L121.192 23.8643L119.197 23.7197ZM120.035 25H109.955V27H120.035V25ZM117.891 14.424H118.339V12.424H117.891V14.424ZM118.339 14.424C119.851 14.424 121.222 13.9676 122.208 12.9286C123.188 11.8961 123.659 10.4255 123.659 8.656H121.659C121.659 10.0865 121.281 10.9999 120.758 11.5514C120.24 12.0964 119.451 12.424 118.339 12.424V14.424ZM123.659 8.656C123.659 6.88091 123.178 5.44132 122.242 4.43809C121.301 3.4286 120.015 2.984 118.659 2.984V4.984C119.575 4.984 120.289 5.2754 120.779 5.80191C121.276 6.33468 121.659 7.23109 121.659 8.656H123.659ZM118.659 2.984H117.859V4.984H118.659V2.984ZM117.859 2.984C117.481 2.984 117.082 3.11766 116.785 3.44509C116.502 3.75873 116.411 4.14163 116.411 4.464H118.411C118.411 4.49837 118.4 4.64127 118.268 4.78691C118.124 4.94633 117.948 4.984 117.859 4.984V2.984ZM116.411 4.464V12.944H118.411V4.464H116.411ZM116.411 12.944C116.411 13.2581 116.49 13.6774 116.824 14.0111C117.157 14.3448 117.577 14.424 117.891 14.424V12.424C117.891 12.424 117.932 12.4237 117.997 12.4453C118.067 12.4686 118.156 12.5147 118.238 12.5969C118.32 12.6791 118.366 12.7681 118.39 12.8378C118.411 12.9026 118.411 12.9437 118.411 12.944H116.411ZM145.237 13.488L144.49 12.8236L144.485 12.8295L145.237 13.488ZM141.109 13.872L140.114 13.9668L140.2 14.872H141.109V13.872ZM140.981 12.528L139.985 12.6111L139.986 12.6228L140.981 12.528ZM138.229 23.28L137.903 24.2254L137.913 24.2287L138.229 23.28ZM138.709 23.44L138.393 24.3887L138.709 23.44ZM139.797 23.856L140.796 23.9007L140.825 23.252L140.245 22.9616L139.797 23.856ZM139.701 26V27H140.658L140.7 26.0447L139.701 26ZM129.781 26L128.782 26.0447L128.825 27H129.781V26ZM129.685 23.856L129.238 22.9616L128.657 23.252L128.686 23.9007L129.685 23.856ZM130.677 23.472L130.994 24.4207L130.677 23.472ZM131.157 23.312L131.474 24.2607L131.484 24.257L131.157 23.312ZM131.093 11.024L131.41 10.0753L131.093 11.024ZM130.613 10.864L130.297 11.8127L130.613 10.864ZM129.685 10.48L128.686 10.4353L128.661 10.999L129.131 11.3121L129.685 10.48ZM129.781 8.336V7.336H128.825L128.782 8.29127L129.781 8.336ZM137.013 8.336H138.013V7.336H137.013V8.336ZM137.013 10.704H136.013V13.7853L137.823 11.2912L137.013 10.704ZM141.941 8.952C142.835 8.952 143.464 9.23934 143.875 9.67893C144.293 10.1263 144.589 10.8431 144.589 11.888H146.589C146.589 10.4689 146.182 9.21775 145.336 8.31307C144.483 7.40066 143.288 6.952 141.941 6.952V8.952ZM144.589 11.888V12.048H146.589V11.888H144.589ZM144.589 12.048C144.589 12.344 144.567 12.548 144.536 12.6848C144.504 12.8196 144.474 12.8417 144.49 12.8236L145.985 14.1524C146.508 13.564 146.589 12.7405 146.589 12.048H144.589ZM144.485 12.8295C144.48 12.8348 144.479 12.8347 144.482 12.8332C144.484 12.8317 144.481 12.8342 144.469 12.8388C144.441 12.8492 144.359 12.872 144.181 12.872V14.872C144.872 14.872 145.514 14.6904 145.99 14.1465L144.485 12.8295ZM144.181 12.872H141.109V14.872H144.181V12.872ZM142.105 13.7772L141.977 12.4332L139.986 12.6228L140.114 13.9668L142.105 13.7772ZM141.978 12.445C141.937 11.9595 141.805 11.4323 141.433 11.0233C141.031 10.5807 140.502 10.44 140.021 10.44V12.44C140.075 12.44 140.079 12.4477 140.054 12.4383C140.041 12.4334 140.023 12.425 140.004 12.4118C139.984 12.3985 139.967 12.3834 139.953 12.3687C139.926 12.3386 139.928 12.3262 139.941 12.3625C139.954 12.4013 139.974 12.4787 139.985 12.611L141.978 12.445ZM140.021 10.44C138.659 10.44 137.638 11.4154 137.013 12.5731C136.373 13.7598 136.013 15.348 136.013 17.104H138.013C138.013 15.596 138.326 14.3522 138.773 13.5229C139.237 12.6646 139.719 12.44 140.021 12.44V10.44ZM136.013 17.104V21.808H138.013V17.104H136.013ZM136.013 21.808C136.013 22.3425 136.094 22.9284 136.519 23.4165C136.9 23.8544 137.443 24.0668 137.903 24.2254L138.555 22.3346C138.34 22.2604 138.204 22.2039 138.114 22.1563C138.028 22.1111 138.017 22.0909 138.028 22.1035C138.077 22.1596 138.013 22.1695 138.013 21.808H136.013ZM137.913 24.2287L138.393 24.3887L139.026 22.4913L138.546 22.3313L137.913 24.2287ZM138.393 24.3887C138.869 24.5473 139.227 24.6886 139.35 24.7504L140.245 22.9616C139.984 22.8314 139.51 22.6527 139.026 22.4913L138.393 24.3887ZM138.798 23.8113L138.702 25.9553L140.7 26.0447L140.796 23.9007L138.798 23.8113ZM139.701 25H129.781V27H139.701V25ZM130.78 25.9553L130.684 23.8113L128.686 23.9007L128.782 26.0447L130.78 25.9553ZM130.133 24.7504C130.258 24.6875 130.619 24.5456 130.994 24.4207L130.361 22.5233C129.968 22.6544 129.496 22.8325 129.238 22.9616L130.133 24.7504ZM130.994 24.4207L131.474 24.2607L130.841 22.3633L130.361 22.5233L130.994 24.4207ZM131.484 24.257C131.965 24.0905 132.487 23.8384 132.808 23.3003C133.101 22.81 133.117 22.2457 133.117 21.808H131.117C131.117 22.0165 131.109 22.1433 131.096 22.2266C131.084 22.3034 131.074 22.3038 131.091 22.2757C131.14 22.1936 131.181 22.2455 130.83 22.367L131.484 24.257ZM133.117 21.808V12.528H131.117V21.808H133.117ZM133.117 12.528C133.117 11.972 133.063 11.3659 132.692 10.8736C132.322 10.3843 131.773 10.1965 131.41 10.0753L130.777 11.9727C130.96 12.0337 131.053 12.0721 131.106 12.1006C131.148 12.1226 131.125 12.1178 131.095 12.0784C131.066 12.0398 131.073 12.0252 131.087 12.0901C131.103 12.1642 131.117 12.2965 131.117 12.528H133.117ZM131.41 10.0753L130.93 9.91532L130.297 11.8127L130.777 11.9727L131.41 10.0753ZM130.93 9.91532C130.742 9.85285 130.581 9.7963 130.449 9.74352C130.384 9.71745 130.332 9.69498 130.294 9.67618C130.253 9.65651 130.238 9.64664 130.24 9.64795L129.131 11.3121C129.457 11.5294 129.95 11.697 130.297 11.8127L130.93 9.91532ZM130.684 10.5247L130.78 8.38073L128.782 8.29127L128.686 10.4353L130.684 10.5247ZM129.781 9.336H137.013V7.336H129.781V9.336ZM136.013 8.336V10.704H138.013V8.336H136.013ZM137.823 11.2912C138.87 9.84794 140.324 8.952 141.941 8.952V6.952C139.527 6.952 137.525 8.29606 136.204 10.1168L137.823 11.2912ZM155.15 25.384C152.76 25.384 150.824 24.573 149.484 23.1917C148.142 21.8084 147.318 19.7691 147.318 17.168H145.318C145.318 20.1989 146.286 22.7676 148.048 24.5843C149.812 26.403 152.292 27.384 155.15 27.384V25.384ZM147.318 17.168C147.318 14.5792 148.174 12.54 149.549 11.1515C150.924 9.76238 152.89 8.952 155.246 8.952V6.952C152.418 6.952 149.92 7.93362 148.127 9.74445C146.334 11.556 145.318 14.1248 145.318 17.168H147.318ZM155.246 8.952C157.652 8.952 159.579 9.76341 160.905 11.1415C162.235 12.5228 163.046 14.5619 163.046 17.168H165.046C165.046 14.1421 164.097 11.5732 162.346 9.75453C160.593 7.93258 158.119 6.952 155.246 6.952V8.952ZM163.046 17.168C163.046 19.7544 162.183 21.7945 160.807 23.1845C159.43 24.5755 157.471 25.384 155.15 25.384V27.384C157.948 27.384 160.438 26.4005 162.229 24.5915C164.02 22.7815 165.046 20.2136 165.046 17.168H163.046ZM155.214 24.344C156.732 24.344 157.943 23.5957 158.72 22.2752C159.461 21.0157 159.798 19.2663 159.798 17.168H157.798C157.798 19.1017 157.479 20.4403 156.996 21.2608C156.549 22.0203 155.968 22.344 155.214 22.344V24.344ZM159.798 17.168C159.798 15.0694 159.461 13.3215 158.725 12.0633C157.955 10.7457 156.754 9.992 155.246 9.992V11.992C155.978 11.992 156.553 12.3103 156.999 13.0727C157.479 13.8945 157.798 15.2346 157.798 17.168H159.798ZM155.246 9.992C153.762 9.992 152.523 10.6681 151.705 11.9789C150.928 13.2263 150.566 14.987 150.566 17.168H152.566C152.566 15.157 152.908 13.8297 153.402 13.0371C153.857 12.3079 154.457 11.992 155.246 11.992V9.992ZM150.566 17.168C150.566 19.2616 150.893 21.0146 151.641 22.2776C152.43 23.6088 153.662 24.344 155.214 24.344V22.344C154.398 22.344 153.806 22.0072 153.362 21.2584C152.878 20.4414 152.566 19.1064 152.566 17.168H150.566ZM195.065 23.472L195.437 22.5435L195.422 22.5376L195.407 22.5322L195.065 23.472ZM195.929 23.856L196.928 23.9007L196.957 23.252L196.376 22.9616L195.929 23.856ZM195.833 26V27H196.789L196.832 26.0447L195.833 26ZM189.113 26H188.113V27H189.113V26ZM184.153 23.344L183.802 24.2804L183.811 24.2838L184.153 23.344ZM184.505 23.472L184.877 22.5435L184.862 22.5376L184.847 22.5322L184.505 23.472ZM185.369 23.856L186.368 23.9007L186.397 23.252L185.816 22.9616L185.369 23.856ZM185.273 26V27H186.229L186.272 26.0447L185.273 26ZM178.553 26H177.553V27H178.553V26ZM173.881 23.312L174.197 22.3632L174.186 22.3596L173.881 23.312ZM174.361 23.472L174.045 24.4207L174.361 23.472ZM175.353 23.856L176.352 23.9007L176.381 23.252L175.8 22.9616L175.353 23.856ZM175.257 26V27H176.213L176.256 26.0447L175.257 26ZM165.625 26L164.626 26.0447L164.669 27H165.625V26ZM165.529 23.856L165.082 22.9616L164.501 23.252L164.53 23.9007L165.529 23.856ZM166.521 23.472L166.837 24.4207L166.521 23.472ZM167.001 23.312L167.317 24.2607L167.328 24.257L167.001 23.312ZM166.969 11.024L167.285 10.0753L166.969 11.024ZM166.489 10.864L166.173 11.8127L166.489 10.864ZM165.561 10.48L164.562 10.4353L164.537 10.999L165.006 11.3121L165.561 10.48ZM165.657 8.336V7.336H164.701L164.658 8.29127L165.657 8.336ZM172.889 8.336H173.889V7.336H172.889V8.336ZM172.889 10.32H171.889V13.1263L173.664 10.9524L172.889 10.32ZM182.521 10.576L181.655 11.0757L182.362 12.3014L183.281 11.2257L182.521 10.576ZM194.713 23.344L194.362 24.2804L194.371 24.2838L194.713 23.344ZM194.694 24.4005C194.99 24.5189 195.316 24.6677 195.482 24.7504L196.376 22.9616C196.158 22.8523 195.78 22.6811 195.437 22.5435L194.694 24.4005ZM194.93 23.8113L194.834 25.9553L196.832 26.0447L196.928 23.9007L194.93 23.8113ZM195.833 25H189.113V27H195.833V25ZM190.113 26V14.608H188.113V26H190.113ZM190.113 14.608C190.113 13.4524 189.92 12.4138 189.39 11.6393C188.814 10.7971 187.939 10.408 186.937 10.408V12.408C187.376 12.408 187.588 12.5469 187.74 12.7687C187.938 13.0582 188.113 13.6196 188.113 14.608H190.113ZM186.937 10.408C185.545 10.408 184.382 11.0763 183.6 12.1704C182.835 13.2402 182.449 14.6852 182.449 16.304H184.449C184.449 14.9788 184.767 13.9758 185.227 13.3336C185.668 12.7157 186.249 12.408 186.937 12.408V10.408ZM182.449 16.304V21.808H184.449V16.304H182.449ZM182.449 21.808C182.449 22.3637 182.489 22.9085 182.715 23.3592C182.989 23.9069 183.437 24.1436 183.802 24.2803L184.504 22.4077C184.419 22.3757 184.411 22.3639 184.43 22.3781C184.462 22.4021 184.49 22.4377 184.504 22.4648C184.511 22.4789 184.493 22.4512 184.477 22.337C184.46 22.2229 184.449 22.0555 184.449 21.808H182.449ZM183.811 24.2838L184.163 24.4118L184.847 22.5322L184.495 22.4042L183.811 24.2838ZM184.134 24.4005C184.43 24.5189 184.756 24.6677 184.922 24.7504L185.816 22.9616C185.598 22.8523 185.22 22.6811 184.877 22.5435L184.134 24.4005ZM184.37 23.8113L184.274 25.9553L186.272 26.0447L186.368 23.9007L184.37 23.8113ZM185.273 25H178.553V27H185.273V25ZM179.553 26V14.608H177.553V26H179.553ZM179.553 14.608C179.553 13.4524 179.36 12.4138 178.83 11.6393C178.254 10.7971 177.379 10.408 176.377 10.408V12.408C176.816 12.408 177.028 12.5469 177.18 12.7687C177.378 13.0582 177.553 13.6196 177.553 14.608H179.553ZM176.377 10.408C174.985 10.408 173.822 11.0763 173.04 12.1704C172.275 13.2402 171.889 14.6852 171.889 16.304H173.889C173.889 14.9788 174.207 13.9758 174.667 13.3336C175.108 12.7157 175.689 12.408 176.377 12.408V10.408ZM171.889 16.304V21.808H173.889V16.304H171.889ZM171.889 21.808C171.889 22.2861 171.93 22.8491 172.242 23.3378C172.576 23.8605 173.09 24.1089 173.576 24.2644L174.186 22.3596C173.872 22.2591 173.891 22.2035 173.928 22.2622C173.94 22.2801 173.928 22.2726 173.915 22.2011C173.9 22.1238 173.889 22.0025 173.889 21.808H171.889ZM173.565 24.2607L174.045 24.4207L174.677 22.5233L174.197 22.3633L173.565 24.2607ZM174.045 24.4207C174.42 24.5456 174.78 24.6875 174.906 24.7504L175.8 22.9616C175.542 22.8325 175.071 22.6544 174.677 22.5233L174.045 24.4207ZM174.354 23.8113L174.258 25.9553L176.256 26.0447L176.352 23.9007L174.354 23.8113ZM175.257 25H165.625V27H175.257V25ZM166.624 25.9553L166.528 23.8113L164.53 23.9007L164.626 26.0447L166.624 25.9553ZM165.976 24.7504C166.102 24.6875 166.463 24.5456 166.837 24.4207L166.205 22.5233C165.812 22.6544 165.34 22.8325 165.082 22.9616L165.976 24.7504ZM166.837 24.4207L167.317 24.2607L166.685 22.3633L166.205 22.5233L166.837 24.4207ZM167.328 24.257C167.805 24.092 168.324 23.8449 168.655 23.322C168.965 22.8306 168.993 22.2657 168.993 21.808H166.993C166.993 22.0098 166.983 22.1315 166.97 22.2086C166.958 22.2786 166.948 22.279 166.964 22.254C167.006 22.1871 167.03 22.2439 166.674 22.367L167.328 24.257ZM168.993 21.808V12.528H166.993V21.808H168.993ZM168.993 12.528C168.993 11.972 168.939 11.3659 168.567 10.8736C168.198 10.3843 167.649 10.1965 167.285 10.0753L166.653 11.9727C166.836 12.0337 166.929 12.0721 166.982 12.1006C167.023 12.1226 167.001 12.1178 166.971 12.0784C166.942 12.0398 166.949 12.0252 166.963 12.0901C166.978 12.1642 166.993 12.2965 166.993 12.528H168.993ZM167.285 10.0753L166.805 9.91532L166.173 11.8127L166.653 11.9727L167.285 10.0753ZM166.805 9.91532C166.618 9.85285 166.456 9.7963 166.325 9.74352C166.259 9.71745 166.208 9.69498 166.169 9.67618C166.129 9.65651 166.114 9.64664 166.116 9.64795L165.006 11.3121C165.332 11.5294 165.826 11.697 166.173 11.8127L166.805 9.91532ZM166.56 10.5247L166.656 8.38073L164.658 8.29127L164.562 10.4353L166.56 10.5247ZM165.657 9.336H172.889V7.336H165.657V9.336ZM171.889 8.336V10.32H173.889V8.336H171.889ZM173.664 10.9524C174.768 9.60011 176.059 8.952 177.753 8.952V6.952C175.416 6.952 173.571 7.90389 172.114 9.68762L173.664 10.9524ZM177.753 8.952C179.564 8.952 180.885 9.74154 181.655 11.0757L183.387 10.0763C182.237 8.08246 180.23 6.952 177.753 6.952V8.952ZM183.281 11.2257C184.596 9.68704 186.175 8.952 188.217 8.952V6.952C185.587 6.952 183.454 7.94496 181.761 9.92635L183.281 11.2257ZM188.217 8.952C189.776 8.952 190.939 9.46696 191.72 10.3194C192.51 11.1823 193.009 12.502 193.009 14.288H195.009C195.009 12.1379 194.404 10.2897 193.195 8.96864C191.975 7.63704 190.242 6.952 188.217 6.952V8.952ZM193.009 14.288V21.808H195.009V14.288H193.009ZM193.009 21.808C193.009 22.3637 193.049 22.9085 193.275 23.3592C193.549 23.9069 193.997 24.1436 194.362 24.2803L195.064 22.4077C194.979 22.3757 194.971 22.3639 194.99 22.3781C195.022 22.4021 195.05 22.4377 195.064 22.4648C195.071 22.4789 195.053 22.4512 195.037 22.337C195.02 22.2229 195.009 22.0555 195.009 21.808H193.009ZM194.371 24.2838L194.723 24.4118L195.407 22.5322L195.055 22.4042L194.371 24.2838ZM206.275 25.384C203.885 25.384 201.949 24.573 200.609 23.1917C199.267 21.8084 198.443 19.7691 198.443 17.168H196.443C196.443 20.1989 197.411 22.7676 199.173 24.5843C200.937 26.403 203.417 27.384 206.275 27.384V25.384ZM198.443 17.168C198.443 14.5792 199.299 12.54 200.674 11.1515C202.049 9.76238 204.015 8.952 206.371 8.952V6.952C203.543 6.952 201.045 7.93362 199.252 9.74445C197.459 11.556 196.443 14.1248 196.443 17.168H198.443ZM206.371 8.952C208.777 8.952 210.704 9.76341 212.03 11.1415C213.36 12.5228 214.171 14.5619 214.171 17.168H216.171C216.171 14.1421 215.222 11.5732 213.471 9.75453C211.718 7.93258 209.244 6.952 206.371 6.952V8.952ZM214.171 17.168C214.171 19.7544 213.308 21.7945 211.932 23.1845C210.555 24.5755 208.596 25.384 206.275 25.384V27.384C209.073 27.384 211.563 26.4005 213.354 24.5915C215.145 22.7815 216.171 20.2136 216.171 17.168H214.171ZM206.339 24.344C207.857 24.344 209.068 23.5957 209.845 22.2752C210.586 21.0157 210.923 19.2663 210.923 17.168H208.923C208.923 19.1017 208.604 20.4403 208.121 21.2608C207.674 22.0203 207.093 22.344 206.339 22.344V24.344ZM210.923 17.168C210.923 15.0694 210.586 13.3215 209.85 12.0633C209.08 10.7457 207.879 9.992 206.371 9.992V11.992C207.103 11.992 207.678 12.3103 208.124 13.0727C208.604 13.8945 208.923 15.2346 208.923 17.168H210.923ZM206.371 9.992C204.887 9.992 203.648 10.6681 202.83 11.9789C202.053 13.2263 201.691 14.987 201.691 17.168H203.691C203.691 15.157 204.033 13.8297 204.527 13.0371C204.982 12.3079 205.582 11.992 206.371 11.992V9.992ZM201.691 17.168C201.691 19.2616 202.018 21.0146 202.766 22.2776C203.555 23.6088 204.787 24.344 206.339 24.344V22.344C205.523 22.344 204.931 22.0072 204.487 21.2584C204.003 20.4414 203.691 19.1064 203.691 17.168H201.691ZM218.894 11.536H219.894V10.536H218.894V11.536ZM216.334 11.536H215.334V12.536H216.334V11.536ZM216.334 8.688L216.087 7.71908L215.334 7.91124V8.688H216.334ZM217.838 8.304L217.596 7.33384L217.591 7.33508L217.838 8.304ZM219.63 6.8L218.668 6.52737L218.665 6.54003L219.63 6.8ZM220.718 2.96V1.96H219.962L219.756 2.6874L220.718 2.96ZM223.79 2.96H224.79V1.96H223.79V2.96ZM223.79 8.336H222.79V9.336H223.79V8.336ZM227.726 8.336H228.726V7.336H227.726V8.336ZM227.726 11.536V12.536H228.726V11.536H227.726ZM223.79 11.536V10.536H222.79V11.536H223.79ZM227.438 21.68L228.257 21.1065L227.688 20.293L226.87 20.8568L227.438 21.68ZM229.006 23.92L229.683 24.6559L230.327 24.0634L229.825 23.3465L229.006 23.92ZM223.566 25.384C222.219 25.384 221.352 25.0645 220.814 24.5378C220.28 24.0145 219.894 23.1126 219.894 21.552H217.894C217.894 23.4154 218.356 24.9295 219.414 25.9662C220.469 26.9995 221.937 27.384 223.566 27.384V25.384ZM219.894 21.552V11.536H217.894V21.552H219.894ZM218.894 10.536H216.334V12.536H218.894V10.536ZM217.334 11.536V8.688H215.334V11.536H217.334ZM216.582 9.65692L218.086 9.27292L217.591 7.33508L216.087 7.71908L216.582 9.65692ZM218.081 9.27414C218.711 9.11658 219.281 8.90164 219.732 8.51603C220.211 8.10638 220.451 7.59593 220.596 7.05997L218.665 6.54003C218.585 6.83607 218.505 6.93362 218.432 6.99597C218.331 7.08236 218.117 7.20341 217.596 7.33386L218.081 9.27414ZM220.592 7.0726L221.68 3.2326L219.756 2.6874L218.668 6.5274L220.592 7.0726ZM220.718 3.96H223.79V1.96H220.718V3.96ZM222.79 2.96V8.336H224.79V2.96H222.79ZM223.79 9.336H227.726V7.336H223.79V9.336ZM226.726 8.336V11.536H228.726V8.336H226.726ZM227.726 10.536H223.79V12.536H227.726V10.536ZM222.79 11.536V21.136H224.79V11.536H222.79ZM222.79 21.136C222.79 21.7657 222.876 22.4377 223.269 22.9561C223.718 23.5482 224.371 23.704 224.942 23.704V21.704C224.823 21.704 224.784 21.6877 224.789 21.6899C224.808 21.6971 224.841 21.7189 224.863 21.7479C224.878 21.7672 224.856 21.7499 224.833 21.6462C224.809 21.541 224.79 21.3783 224.79 21.136H222.79ZM224.942 23.704C225.926 23.704 227.032 23.1752 228.006 22.5032L226.87 20.8568C225.989 21.4648 225.302 21.704 224.942 21.704V23.704ZM226.619 22.2535L228.187 24.4935L229.825 23.3465L228.257 21.1065L226.619 22.2535ZM228.329 23.1841C226.837 24.5568 225.148 25.384 223.566 25.384V27.384C225.825 27.384 227.975 26.2272 229.683 24.6559L228.329 23.1841ZM230.534 26L229.535 26.0447L229.578 27H230.534V26ZM230.438 23.856L229.991 22.9616L229.41 23.252L229.439 23.9007L230.438 23.856ZM231.43 23.472L231.747 24.4207L231.43 23.472ZM231.91 23.312L232.227 24.2607L232.237 24.257L231.91 23.312ZM231.878 11.024L232.195 10.0753L231.878 11.024ZM231.398 10.864L231.082 11.8127L231.398 10.864ZM230.47 10.48L229.471 10.4353L229.446 10.999L229.916 11.3121L230.47 10.48ZM230.566 8.336V7.336H229.61L229.567 8.29127L230.566 8.336ZM237.798 8.336H238.798V7.336H237.798V8.336ZM238.79 23.312L239.107 22.3632L239.095 22.3596L238.79 23.312ZM239.27 23.472L238.954 24.4207L239.27 23.472ZM240.262 23.856L241.261 23.9007L241.29 23.252L240.71 22.9616L240.262 23.856ZM240.166 26V27H241.123L241.165 26.0447L240.166 26ZM235.302 5.256C234.084 5.256 233.23 4.38229 233.23 3.312H231.23C231.23 5.56971 233.064 7.256 235.302 7.256V5.256ZM233.23 3.312C233.23 2.25571 234.07 1.4 235.302 1.4V-0.6C233.079 -0.6 231.23 1.04029 231.23 3.312H233.23ZM235.302 1.4C236.507 1.4 237.31 2.22863 237.31 3.312H239.31C239.31 1.06736 237.554 -0.6 235.302 -0.6V1.4ZM237.31 3.312C237.31 4.40959 236.492 5.256 235.302 5.256V7.256C237.568 7.256 239.31 5.54241 239.31 3.312H237.31ZM231.533 25.9553L231.437 23.8113L229.439 23.9007L229.535 26.0447L231.533 25.9553ZM230.886 24.7504C231.011 24.6875 231.372 24.5456 231.747 24.4207L231.114 22.5233C230.721 22.6544 230.249 22.8325 229.991 22.9616L230.886 24.7504ZM231.747 24.4207L232.227 24.2607L231.594 22.3633L231.114 22.5233L231.747 24.4207ZM232.237 24.257C232.714 24.092 233.234 23.8449 233.564 23.322C233.874 22.8306 233.902 22.2657 233.902 21.808H231.902C231.902 22.0098 231.893 22.1315 231.879 22.2086C231.867 22.2786 231.857 22.279 231.873 22.254C231.915 22.1871 231.939 22.2439 231.583 22.367L232.237 24.257ZM233.902 21.808V12.528H231.902V21.808H233.902ZM233.902 12.528C233.902 11.972 233.848 11.3659 233.477 10.8736C233.107 10.3843 232.558 10.1965 232.195 10.0753L231.562 11.9727C231.745 12.0337 231.838 12.0721 231.891 12.1006C231.933 12.1226 231.91 12.1178 231.88 12.0784C231.851 12.0398 231.858 12.0252 231.872 12.0901C231.888 12.1642 231.902 12.2965 231.902 12.528H233.902ZM232.195 10.0753L231.715 9.91532L231.082 11.8127L231.562 11.9727L232.195 10.0753ZM231.715 9.91532C231.527 9.85285 231.366 9.7963 231.234 9.74352C231.169 9.71745 231.117 9.69498 231.079 9.67618C231.038 9.65651 231.023 9.64664 231.025 9.64795L229.916 11.3121C230.242 11.5294 230.735 11.697 231.082 11.8127L231.715 9.91532ZM231.469 10.5247L231.565 8.38073L229.567 8.29127L229.471 10.4353L231.469 10.5247ZM230.566 9.336H237.798V7.336H230.566V9.336ZM236.798 8.336V21.808H238.798V8.336H236.798ZM236.798 21.808C236.798 22.2861 236.84 22.8491 237.151 23.3378C237.485 23.8605 238 24.1089 238.486 24.2644L239.095 22.3596C238.781 22.2591 238.8 22.2035 238.837 22.2622C238.849 22.2801 238.837 22.2726 238.824 22.2011C238.809 22.1238 238.798 22.0025 238.798 21.808H236.798ZM238.474 24.2607L238.954 24.4207L239.587 22.5233L239.107 22.3633L238.474 24.2607ZM238.954 24.4207C239.329 24.5456 239.689 24.6875 239.815 24.7504L240.71 22.9616C240.451 22.8325 239.98 22.6544 239.587 22.5233L238.954 24.4207ZM239.263 23.8113L239.167 25.9553L241.165 26.0447L241.261 23.9007L239.263 23.8113ZM240.166 25H230.534V27H240.166V25ZM250.119 25.384C247.729 25.384 245.792 24.573 244.452 23.1917C243.111 21.8084 242.287 19.7691 242.287 17.168H240.287C240.287 20.1989 241.255 22.7676 243.017 24.5843C244.781 26.403 247.26 27.384 250.119 27.384V25.384ZM242.287 17.168C242.287 14.5792 243.143 12.54 244.517 11.1515C245.893 9.76238 247.858 8.952 250.215 8.952V6.952C247.387 6.952 244.889 7.93362 243.096 9.74445C241.303 11.556 240.287 14.1248 240.287 17.168H242.287ZM250.215 8.952C252.621 8.952 254.548 9.76341 255.874 11.1415C257.204 12.5228 258.015 14.5619 258.015 17.168H260.015C260.015 14.1421 259.066 11.5732 257.315 9.75453C255.561 7.93258 253.088 6.952 250.215 6.952V8.952ZM258.015 17.168C258.015 19.7544 257.152 21.7945 255.776 23.1845C254.399 24.5755 252.44 25.384 250.119 25.384V27.384C252.917 27.384 255.406 26.4005 257.197 24.5915C258.989 22.7815 260.015 20.2136 260.015 17.168H258.015ZM250.183 24.344C251.701 24.344 252.911 23.5957 253.688 22.2752C254.43 21.0157 254.767 19.2663 254.767 17.168H252.767C252.767 19.1017 252.448 20.4403 251.965 21.2608C251.518 22.0203 250.936 22.344 250.183 22.344V24.344ZM254.767 17.168C254.767 15.0694 254.43 13.3215 253.694 12.0633C252.924 10.7457 251.722 9.992 250.215 9.992V11.992C250.947 11.992 251.522 12.3103 251.967 13.0727C252.448 13.8945 252.767 15.2346 252.767 17.168H254.767ZM250.215 9.992C248.731 9.992 247.491 10.6681 246.674 11.9789C245.896 13.2263 245.535 14.987 245.535 17.168H247.535C247.535 15.157 247.877 13.8297 248.371 13.0371C248.826 12.3079 249.426 11.992 250.215 11.992V9.992ZM245.535 17.168C245.535 19.2616 245.862 21.0146 246.61 22.2776C247.399 23.6088 248.631 24.344 250.183 24.344V22.344C249.367 22.344 248.775 22.0072 248.331 21.2584C247.847 20.4414 247.535 19.1064 247.535 17.168H245.535ZM279.954 23.472L280.325 22.5435L280.311 22.5376L280.296 22.5322L279.954 23.472ZM280.818 23.856L281.817 23.9007L281.846 23.252L281.265 22.9616L280.818 23.856ZM280.722 26V27H281.678L281.721 26.0447L280.722 26ZM274.002 26H273.002V27H274.002V26ZM268.85 23.312L269.166 22.3632L269.155 22.3596L268.85 23.312ZM269.33 23.472L269.014 24.4207L269.33 23.472ZM270.322 23.856L271.321 23.9007L271.35 23.252L270.769 22.9616L270.322 23.856ZM270.226 26V27H271.182L271.225 26.0447L270.226 26ZM260.594 26L259.595 26.0447L259.638 27H260.594V26ZM260.498 23.856L260.051 22.9616L259.47 23.252L259.499 23.9007L260.498 23.856ZM261.49 23.472L261.806 24.4207L261.49 23.472ZM261.97 23.312L262.286 24.2607L262.297 24.257L261.97 23.312ZM261.938 11.024L262.254 10.0753L261.938 11.024ZM261.458 10.864L261.142 11.8127H261.142L261.458 10.864ZM260.53 10.48L259.531 10.4353L259.506 10.999L259.975 11.3121L260.53 10.48ZM260.626 8.336V7.336H259.67L259.627 8.29127L260.626 8.336ZM267.858 8.336H268.858V7.336H267.858V8.336ZM267.858 10.192H266.858V12.7703L268.596 10.8663L267.858 10.192ZM279.602 23.344L279.251 24.2804L279.26 24.2838L279.602 23.344ZM279.582 24.4005C279.879 24.5189 280.205 24.6677 280.371 24.7504L281.265 22.9616C281.047 22.8523 280.669 22.6811 280.325 22.5435L279.582 24.4005ZM279.819 23.8113L279.723 25.9553L281.721 26.0447L281.817 23.9007L279.819 23.8113ZM280.722 25H274.002V27H280.722V25ZM275.002 26V14.928H273.002V26H275.002ZM275.002 14.928C275.002 13.7488 274.833 12.657 274.275 11.8425C273.659 10.9449 272.707 10.568 271.602 10.568V12.568C272.225 12.568 272.473 12.7511 272.625 12.9735C272.835 13.279 273.002 13.8672 273.002 14.928H275.002ZM271.602 10.568C270.107 10.568 268.865 11.1728 268.029 12.2938C267.22 13.3767 266.858 14.8464 266.858 16.496H268.858C268.858 15.1056 269.168 14.1113 269.631 13.4902C270.066 12.9072 270.697 12.568 271.602 12.568V10.568ZM266.858 16.496V21.808H268.858V16.496H266.858ZM266.858 21.808C266.858 22.2861 266.899 22.8491 267.211 23.3378C267.544 23.8605 268.059 24.1089 268.545 24.2644L269.155 22.3596C268.841 22.2591 268.859 22.2035 268.897 22.2622C268.908 22.2801 268.897 22.2726 268.883 22.2011C268.869 22.1238 268.858 22.0025 268.858 21.808H266.858ZM268.534 24.2607L269.014 24.4207L269.646 22.5233L269.166 22.3633L268.534 24.2607ZM269.014 24.4207C269.388 24.5456 269.749 24.6875 269.875 24.7504L270.769 22.9616C270.511 22.8325 270.039 22.6544 269.646 22.5233L269.014 24.4207ZM269.323 23.8113L269.227 25.9553L271.225 26.0447L271.321 23.9007L269.323 23.8113ZM270.226 25H260.594V27H270.226V25ZM261.593 25.9553L261.497 23.8113L259.499 23.9007L259.595 26.0447L261.593 25.9553ZM260.945 24.7504C261.071 24.6875 261.431 24.5456 261.806 24.4207L261.174 22.5233C260.78 22.6544 260.309 22.8325 260.051 22.9616L260.945 24.7504ZM261.806 24.4207L262.286 24.2607L261.654 22.3633L261.174 22.5233L261.806 24.4207ZM262.297 24.257C262.773 24.092 263.293 23.8449 263.623 23.322C263.934 22.8306 263.962 22.2657 263.962 21.808H261.962C261.962 22.0098 261.952 22.1315 261.939 22.2086C261.927 22.2786 261.917 22.279 261.932 22.254C261.975 22.1871 261.998 22.2439 261.643 22.367L262.297 24.257ZM263.962 21.808V12.528H261.962V21.808H263.962ZM263.962 12.528C263.962 11.972 263.908 11.3659 263.536 10.8736C263.167 10.3843 262.618 10.1965 262.254 10.0753L261.622 11.9727C261.805 12.0337 261.897 12.0721 261.951 12.1006C261.992 12.1226 261.969 12.1178 261.94 12.0784C261.911 12.0398 261.918 12.0252 261.931 12.0901C261.947 12.1642 261.962 12.2965 261.962 12.528H263.962ZM262.254 10.0753L261.774 9.91532L261.142 11.8127L261.622 11.9727L262.254 10.0753ZM261.774 9.91532C261.587 9.85285 261.425 9.7963 261.293 9.74352C261.228 9.71745 261.177 9.69498 261.138 9.67618C261.098 9.65651 261.083 9.64664 261.085 9.64795L259.975 11.3121C260.301 11.5294 260.794 11.697 261.142 11.8127L261.774 9.91532ZM261.529 10.5247L261.625 8.38073L259.627 8.29127L259.531 10.4353L261.529 10.5247ZM260.626 9.336H267.858V7.336H260.626V9.336ZM266.858 8.336V10.192H268.858V8.336H266.858ZM268.596 10.8663C269.749 9.60342 271.209 8.952 272.978 8.952V6.952C270.651 6.952 268.654 7.83658 267.119 9.51773L268.596 10.8663ZM272.978 8.952C274.593 8.952 275.789 9.47233 276.587 10.3266C277.393 11.1893 277.898 12.5058 277.898 14.288H279.898C279.898 12.1342 279.283 10.2827 278.049 8.96139C276.807 7.63167 275.043 6.952 272.978 6.952V8.952ZM277.898 14.288V21.808H279.898V14.288H277.898ZM277.898 21.808C277.898 22.3637 277.938 22.9085 278.163 23.3592C278.437 23.9069 278.886 24.1436 279.251 24.2803L279.953 22.4077C279.868 22.3757 279.86 22.3639 279.879 22.3781C279.91 22.4021 279.939 22.4377 279.952 22.4648C279.959 22.4789 279.942 22.4512 279.926 22.337C279.909 22.2229 279.898 22.0555 279.898 21.808H277.898ZM279.26 24.2838L279.612 24.4118L280.296 22.5322L279.944 22.4042L279.26 24.2838Z" fill="#1E1E1C" mask="url(#path-1-outside-1_164_647)"/>
</g>
<defs>
<filter id="filter0_d_164_647" x="0.637817" y="0.400024" width="280.18" height="27.9839" filterUnits="userSpaceOnUse" color-interpolation-filters="sRGB">
<feFlood flood-opacity="0" result="BackgroundImageFix"/>
<feColorMatrix in="SourceAlpha" type="matrix" values="0 0 0 0 0 0 0 0 0 0 0 0 0 0 0 0 0 0 127 0" result="hardAlpha"/>
<feOffset dx="-2" dy="2"/>
<feComposite in2="hardAlpha" operator="out"/>
<feColorMatrix type="matrix" values="0 0 0 0 0.117647 0 0 0 0 0.117647 0 0 0 0 0.109804 0 0 0 1 0"/>
<feBlend mode="normal" in2="BackgroundImageFix" result="effect1_dropShadow_164_647"/>
<feBlend mode="normal" in="SourceGraphic" in2="effect1_dropShadow_164_647" result="shape"/>
</filter>
</defs>
</svg>
